<mxfile host="65bd71144e" pages="2">
    <diagram id="1zcTAVt1k4KSup7FvAfL" name="Roadmap">
        <mxGraphModel dx="7070" dy="4617" grid="1" gridSize="10" guides="1" tooltips="1" connect="1" arrows="1" fold="1" page="1" pageScale="1" pageWidth="3300" pageHeight="2339" math="0" shadow="0">
            <root>
                <mxCell id="3D7FDG2aXA9G618_Kong-0"/>
                <mxCell id="3D7FDG2aXA9G618_Kong-1" parent="3D7FDG2aXA9G618_Kong-0"/>
                <mxCell id="56" value="" style="shape=rect;fillColor=#fff2cc;strokeColor=none;fontSize=24;html=1;whiteSpace=wrap;align=left;verticalAlign=top;spacing=5;rounded=0;" vertex="1" parent="3D7FDG2aXA9G618_Kong-1">
                    <mxGeometry x="-860" y="-740" width="1610" height="180" as="geometry"/>
                </mxCell>
                <mxCell id="wGroBH12Sy7-OgBsN0fJ-2" value="" style="shape=rect;fillColor=#fff2cc;strokeColor=none;fontSize=24;html=1;whiteSpace=wrap;align=left;verticalAlign=top;spacing=5;rounded=0;" parent="3D7FDG2aXA9G618_Kong-1" vertex="1">
                    <mxGeometry x="-860" y="-930" width="1610" height="180" as="geometry"/>
                </mxCell>
                <mxCell id="wGroBH12Sy7-OgBsN0fJ-4" value="" style="shape=rect;fillColor=#fff2cc;strokeColor=none;fontSize=24;html=1;whiteSpace=wrap;align=left;verticalAlign=top;spacing=5;rounded=0;" parent="3D7FDG2aXA9G618_Kong-1" vertex="1">
                    <mxGeometry x="-2500" y="-1146.8" width="1610" height="196.8" as="geometry"/>
                </mxCell>
                <mxCell id="wGroBH12Sy7-OgBsN0fJ-5" value="Разработка состава (балнков) заявок для интернет банка" style="shape=rect;fillColor=#ffe6cc;strokeColor=#d79b00;fontSize=18;html=1;whiteSpace=wrap;align=left;verticalAlign=top;spacing=5;rounded=0;" parent="3D7FDG2aXA9G618_Kong-1" vertex="1">
                    <mxGeometry x="-2480" y="-1120" width="700" height="50" as="geometry"/>
                </mxCell>
                <mxCell id="wGroBH12Sy7-OgBsN0fJ-7" value="Основной сервис интернет-банка" style="rounded=0;whiteSpace=wrap;html=1;fillColor=#f5f5f5;fontColor=#333333;strokeColor=#666666;fontSize=18;" parent="3D7FDG2aXA9G618_Kong-1" vertex="1">
                    <mxGeometry x="-2630" y="-1146.8" width="120" height="196.8" as="geometry"/>
                </mxCell>
                <mxCell id="wGroBH12Sy7-OgBsN0fJ-8" value="Вспомогательный сервис интернет-банка" style="rounded=0;whiteSpace=wrap;html=1;fillColor=#f5f5f5;fontColor=#333333;strokeColor=#666666;fontSize=18;" parent="3D7FDG2aXA9G618_Kong-1" vertex="1">
                    <mxGeometry x="-2630" y="-930" width="120" height="180" as="geometry"/>
                </mxCell>
                <mxCell id="wGroBH12Sy7-OgBsN0fJ-9" value="Q2" style="shape=step;perimeter=stepPerimeter;whiteSpace=wrap;html=1;fixedSize=1;size=10;fillColor=#f5f5f5;strokeColor=#666666;fontSize=18;fontStyle=1;align=center;rounded=0;fontColor=#333333;" parent="3D7FDG2aXA9G618_Kong-1" vertex="1">
                    <mxGeometry x="-2500" y="-1240" width="1610" height="74.4" as="geometry"/>
                </mxCell>
                <mxCell id="wGroBH12Sy7-OgBsN0fJ-15" value="Доработка интернет-банка" style="shape=rect;fillColor=#ffe6cc;strokeColor=#d79b00;fontSize=18;html=1;whiteSpace=wrap;align=center;verticalAlign=top;spacing=5;rounded=0;" parent="3D7FDG2aXA9G618_Kong-1" vertex="1">
                    <mxGeometry x="-1770" y="-1060" width="860" height="60" as="geometry"/>
                </mxCell>
                <mxCell id="0" value="Брокер сообщений" style="rounded=0;whiteSpace=wrap;html=1;fillColor=#f5f5f5;fontColor=#333333;strokeColor=#666666;fontSize=18;" vertex="1" parent="3D7FDG2aXA9G618_Kong-1">
                    <mxGeometry x="-2630" y="-540" width="120" height="180" as="geometry"/>
                </mxCell>
                <mxCell id="1" value="" style="shape=rect;fillColor=#fff2cc;strokeColor=none;fontSize=24;html=1;whiteSpace=wrap;align=left;verticalAlign=top;spacing=5;rounded=0;" vertex="1" parent="3D7FDG2aXA9G618_Kong-1">
                    <mxGeometry x="-2500" y="-540" width="1610" height="180" as="geometry"/>
                </mxCell>
                <mxCell id="2" value="Настройка и установка kafka" style="shape=rect;fillColor=#ffe6cc;strokeColor=#d79b00;fontSize=18;html=1;whiteSpace=wrap;align=left;verticalAlign=top;spacing=5;rounded=0;" vertex="1" parent="3D7FDG2aXA9G618_Kong-1">
                    <mxGeometry x="-2010" y="-475" width="530" height="50" as="geometry"/>
                </mxCell>
                <mxCell id="3" value="SFTP" style="rounded=0;whiteSpace=wrap;html=1;fillColor=#f5f5f5;fontColor=#333333;strokeColor=#666666;fontSize=18;" vertex="1" parent="3D7FDG2aXA9G618_Kong-1">
                    <mxGeometry x="-2630" y="-340" width="120" height="180" as="geometry"/>
                </mxCell>
                <mxCell id="4" value="" style="shape=rect;fillColor=#fff2cc;strokeColor=none;fontSize=24;html=1;whiteSpace=wrap;align=left;verticalAlign=top;spacing=5;rounded=0;" vertex="1" parent="3D7FDG2aXA9G618_Kong-1">
                    <mxGeometry x="-2500" y="-340" width="1610" height="180" as="geometry"/>
                </mxCell>
                <mxCell id="5" value="Настройка SFTP" style="shape=rect;fillColor=#ffe6cc;strokeColor=#d79b00;fontSize=18;html=1;whiteSpace=wrap;align=left;verticalAlign=top;spacing=5;rounded=0;" vertex="1" parent="3D7FDG2aXA9G618_Kong-1">
                    <mxGeometry x="-2480" y="-275" width="470" height="50" as="geometry"/>
                </mxCell>
                <mxCell id="6" value="Бэк-офис" style="rounded=0;whiteSpace=wrap;html=1;fillColor=#f5f5f5;fontColor=#333333;strokeColor=#666666;fontSize=18;" vertex="1" parent="3D7FDG2aXA9G618_Kong-1">
                    <mxGeometry x="-2630" y="290" width="120" height="180" as="geometry"/>
                </mxCell>
                <mxCell id="7" value="" style="shape=rect;fillColor=#fff2cc;strokeColor=none;fontSize=24;html=1;whiteSpace=wrap;align=left;verticalAlign=top;spacing=5;rounded=0;" vertex="1" parent="3D7FDG2aXA9G618_Kong-1">
                    <mxGeometry x="-860" y="290" width="1610" height="180" as="geometry"/>
                </mxCell>
                <mxCell id="8" value="Обучение сотрудников" style="shape=rect;fillColor=#ffe6cc;strokeColor=#d79b00;fontSize=18;html=1;whiteSpace=wrap;align=left;verticalAlign=top;spacing=5;rounded=0;" vertex="1" parent="3D7FDG2aXA9G618_Kong-1">
                    <mxGeometry x="-60" y="355" width="760" height="50" as="geometry"/>
                </mxCell>
                <mxCell id="9" value="Call-центры" style="rounded=0;whiteSpace=wrap;html=1;fillColor=#f5f5f5;fontColor=#333333;strokeColor=#666666;fontSize=18;" vertex="1" parent="3D7FDG2aXA9G618_Kong-1">
                    <mxGeometry x="-2630" y="490" width="120" height="180" as="geometry"/>
                </mxCell>
                <mxCell id="10" value="" style="shape=rect;fillColor=#fff2cc;strokeColor=none;fontSize=24;html=1;whiteSpace=wrap;align=left;verticalAlign=top;spacing=5;rounded=0;" vertex="1" parent="3D7FDG2aXA9G618_Kong-1">
                    <mxGeometry x="-860" y="490" width="1610" height="180" as="geometry"/>
                </mxCell>
                <mxCell id="11" value="Обучение сотрудников" style="shape=rect;fillColor=#ffe6cc;strokeColor=#d79b00;fontSize=18;html=1;whiteSpace=wrap;align=left;verticalAlign=top;spacing=5;rounded=0;" vertex="1" parent="3D7FDG2aXA9G618_Kong-1">
                    <mxGeometry x="-50" y="555" width="750" height="50" as="geometry"/>
                </mxCell>
                <mxCell id="24" value="АБС" style="rounded=0;whiteSpace=wrap;html=1;fillColor=#f5f5f5;fontColor=#333333;strokeColor=#666666;fontSize=18;" vertex="1" parent="3D7FDG2aXA9G618_Kong-1">
                    <mxGeometry x="-2630" y="-140" width="120" height="180" as="geometry"/>
                </mxCell>
                <mxCell id="25" value="" style="shape=rect;fillColor=#fff2cc;strokeColor=none;fontSize=24;html=1;whiteSpace=wrap;align=left;verticalAlign=top;spacing=5;rounded=0;" vertex="1" parent="3D7FDG2aXA9G618_Kong-1">
                    <mxGeometry x="-2500" y="-140" width="1610" height="180" as="geometry"/>
                </mxCell>
                <mxCell id="26" value="Добавление работы с заявками в АБС" style="shape=rect;fillColor=#ffe6cc;strokeColor=#d79b00;fontSize=18;html=1;whiteSpace=wrap;align=left;verticalAlign=top;spacing=5;rounded=0;" vertex="1" parent="3D7FDG2aXA9G618_Kong-1">
                    <mxGeometry x="-2480" y="-110" width="720" height="50" as="geometry"/>
                </mxCell>
                <mxCell id="30" value="Добавление работы со ставками в АБС" style="shape=rect;fillColor=#ffe6cc;strokeColor=#d79b00;fontSize=18;html=1;whiteSpace=wrap;align=left;verticalAlign=top;spacing=5;rounded=0;" vertex="1" parent="3D7FDG2aXA9G618_Kong-1">
                    <mxGeometry x="-1750" y="-40" width="820" height="50" as="geometry"/>
                </mxCell>
                <mxCell id="31" value="Q3" style="shape=step;perimeter=stepPerimeter;whiteSpace=wrap;html=1;fixedSize=1;size=10;fillColor=#f5f5f5;strokeColor=#666666;fontSize=18;fontStyle=1;align=center;rounded=0;fontColor=#333333;" vertex="1" parent="3D7FDG2aXA9G618_Kong-1">
                    <mxGeometry x="-870" y="-1244" width="1610" height="74.4" as="geometry"/>
                </mxCell>
                <mxCell id="38" value="Call-центры партнера" style="rounded=0;whiteSpace=wrap;html=1;fillColor=#f5f5f5;fontColor=#333333;strokeColor=#666666;fontSize=18;" vertex="1" parent="3D7FDG2aXA9G618_Kong-1">
                    <mxGeometry x="-2630" y="700" width="120" height="180" as="geometry"/>
                </mxCell>
                <mxCell id="39" value="" style="shape=rect;fillColor=#fff2cc;strokeColor=none;fontSize=24;html=1;whiteSpace=wrap;align=left;verticalAlign=top;spacing=5;rounded=0;" vertex="1" parent="3D7FDG2aXA9G618_Kong-1">
                    <mxGeometry x="-860" y="700" width="1610" height="180" as="geometry"/>
                </mxCell>
                <mxCell id="40" value="Обучение сотрудников" style="shape=rect;fillColor=#ffe6cc;strokeColor=#d79b00;fontSize=18;html=1;whiteSpace=wrap;align=left;verticalAlign=top;spacing=5;rounded=0;" vertex="1" parent="3D7FDG2aXA9G618_Kong-1">
                    <mxGeometry x="-820" y="760" width="760" height="50" as="geometry"/>
                </mxCell>
                <mxCell id="42" value="" style="shape=rect;fillColor=#fff2cc;strokeColor=none;fontSize=24;html=1;whiteSpace=wrap;align=left;verticalAlign=top;spacing=5;rounded=0;" vertex="1" parent="3D7FDG2aXA9G618_Kong-1">
                    <mxGeometry x="-2500" y="700" width="1610" height="180" as="geometry"/>
                </mxCell>
                <mxCell id="43" value="" style="shape=rect;fillColor=#fff2cc;strokeColor=none;fontSize=24;html=1;whiteSpace=wrap;align=left;verticalAlign=top;spacing=5;rounded=0;" vertex="1" parent="3D7FDG2aXA9G618_Kong-1">
                    <mxGeometry x="-2490" y="490" width="1610" height="180" as="geometry"/>
                </mxCell>
                <mxCell id="45" value="" style="shape=rect;fillColor=#fff2cc;strokeColor=none;fontSize=24;html=1;whiteSpace=wrap;align=left;verticalAlign=top;spacing=5;rounded=0;" vertex="1" parent="3D7FDG2aXA9G618_Kong-1">
                    <mxGeometry x="-2490" y="290" width="1610" height="180" as="geometry"/>
                </mxCell>
                <mxCell id="47" value="" style="shape=rect;fillColor=#fff2cc;strokeColor=none;fontSize=24;html=1;whiteSpace=wrap;align=left;verticalAlign=top;spacing=5;rounded=0;" vertex="1" parent="3D7FDG2aXA9G618_Kong-1">
                    <mxGeometry x="-2480" y="-930" width="1610" height="180" as="geometry"/>
                </mxCell>
                <mxCell id="48" value="Добавление загрузки ставок из файлов" style="shape=rect;fillColor=#ffe6cc;strokeColor=#d79b00;fontSize=18;html=1;whiteSpace=wrap;align=center;verticalAlign=top;spacing=5;rounded=0;" vertex="1" parent="3D7FDG2aXA9G618_Kong-1">
                    <mxGeometry x="-2010" y="750" width="1090" height="60" as="geometry"/>
                </mxCell>
                <mxCell id="49" value="Фронт-офис" style="rounded=0;whiteSpace=wrap;html=1;fillColor=#f5f5f5;fontColor=#333333;strokeColor=#666666;fontSize=18;" vertex="1" parent="3D7FDG2aXA9G618_Kong-1">
                    <mxGeometry x="-2630" y="70" width="120" height="180" as="geometry"/>
                </mxCell>
                <mxCell id="50" value="" style="shape=rect;fillColor=#fff2cc;strokeColor=none;fontSize=24;html=1;whiteSpace=wrap;align=left;verticalAlign=top;spacing=5;rounded=0;" vertex="1" parent="3D7FDG2aXA9G618_Kong-1">
                    <mxGeometry x="-860" y="70" width="1610" height="180" as="geometry"/>
                </mxCell>
                <mxCell id="51" value="Обучение сотрудников" style="shape=rect;fillColor=#ffe6cc;strokeColor=#d79b00;fontSize=18;html=1;whiteSpace=wrap;align=left;verticalAlign=top;spacing=5;rounded=0;" vertex="1" parent="3D7FDG2aXA9G618_Kong-1">
                    <mxGeometry x="-280" y="135" width="980" height="50" as="geometry"/>
                </mxCell>
                <mxCell id="52" value="" style="shape=rect;fillColor=#fff2cc;strokeColor=none;fontSize=24;html=1;whiteSpace=wrap;align=left;verticalAlign=top;spacing=5;rounded=0;" vertex="1" parent="3D7FDG2aXA9G618_Kong-1">
                    <mxGeometry x="-2490" y="70" width="1610" height="180" as="geometry"/>
                </mxCell>
                <mxCell id="53" value="Вспомогательный сервис call-центра партнера" style="rounded=0;whiteSpace=wrap;html=1;fillColor=#f5f5f5;fontColor=#333333;strokeColor=#666666;fontSize=18;" vertex="1" parent="3D7FDG2aXA9G618_Kong-1">
                    <mxGeometry x="-2630" y="-740" width="120" height="180" as="geometry"/>
                </mxCell>
                <mxCell id="54" value="" style="shape=rect;fillColor=#fff2cc;strokeColor=none;fontSize=24;html=1;whiteSpace=wrap;align=left;verticalAlign=top;spacing=5;rounded=0;" vertex="1" parent="3D7FDG2aXA9G618_Kong-1">
                    <mxGeometry x="-2500" y="-740" width="1610" height="180" as="geometry"/>
                </mxCell>
                <mxCell id="55" value="Разработка сервиса формирования файлов со ставками" style="shape=rect;fillColor=#ffe6cc;strokeColor=#d79b00;fontSize=18;html=1;whiteSpace=wrap;align=center;verticalAlign=top;spacing=5;rounded=0;" vertex="1" parent="3D7FDG2aXA9G618_Kong-1">
                    <mxGeometry x="-1460" y="-680" width="1120" height="60" as="geometry"/>
                </mxCell>
                <mxCell id="wGroBH12Sy7-OgBsN0fJ-6" value="Разработка сервиса передачи заявок в АБС" style="shape=rect;fillColor=#ffe6cc;strokeColor=#d79b00;fontSize=18;html=1;whiteSpace=wrap;align=center;verticalAlign=top;spacing=5;rounded=0;" parent="3D7FDG2aXA9G618_Kong-1" vertex="1">
                    <mxGeometry x="-1460" y="-860" width="1130" height="60" as="geometry"/>
                </mxCell>
                <mxCell id="57" value="" style="shape=rect;fillColor=#fff2cc;strokeColor=none;fontSize=24;html=1;whiteSpace=wrap;align=left;verticalAlign=top;spacing=5;rounded=0;" vertex="1" parent="3D7FDG2aXA9G618_Kong-1">
                    <mxGeometry x="-860" y="-550" width="1610" height="180" as="geometry"/>
                </mxCell>
                <mxCell id="58" value="" style="shape=rect;fillColor=#fff2cc;strokeColor=none;fontSize=24;html=1;whiteSpace=wrap;align=left;verticalAlign=top;spacing=5;rounded=0;" vertex="1" parent="3D7FDG2aXA9G618_Kong-1">
                    <mxGeometry x="-860" y="-340" width="1610" height="180" as="geometry"/>
                </mxCell>
                <mxCell id="59" value="" style="shape=rect;fillColor=#fff2cc;strokeColor=none;fontSize=24;html=1;whiteSpace=wrap;align=left;verticalAlign=top;spacing=5;rounded=0;" vertex="1" parent="3D7FDG2aXA9G618_Kong-1">
                    <mxGeometry x="-870" y="-150" width="1610" height="180" as="geometry"/>
                </mxCell>
                <mxCell id="60" value="" style="shape=rect;fillColor=#fff2cc;strokeColor=none;fontSize=24;html=1;whiteSpace=wrap;align=left;verticalAlign=top;spacing=5;rounded=0;" vertex="1" parent="3D7FDG2aXA9G618_Kong-1">
                    <mxGeometry x="-860" y="-1138.4" width="1610" height="180" as="geometry"/>
                </mxCell>
            </root>
        </mxGraphModel>
    </diagram>
    <diagram id="6faDem5PxRRIMGQd80wj" name="Roadmap_change">
        <mxGraphModel grid="1" page="1" gridSize="10" guides="1" tooltips="1" connect="1" arrows="1" fold="1" pageScale="1" pageWidth="3300" pageHeight="2339" math="0" shadow="0">
            <root>
                <mxCell id="0"/>
                <mxCell id="1" parent="0"/>
                <mxCell id="QlwB00z0-otb056kdUWZ-19" value="" style="shape=rect;fillColor=#fff2cc;strokeColor=none;fontSize=24;html=1;whiteSpace=wrap;align=left;verticalAlign=top;spacing=5;rounded=0;" vertex="1" parent="1">
                    <mxGeometry x="-2500" y="-530" width="1620" height="190" as="geometry"/>
                </mxCell>
                <mxCell id="QlwB00z0-otb056kdUWZ-18" value="" style="shape=rect;fillColor=#fff2cc;strokeColor=none;fontSize=24;html=1;whiteSpace=wrap;align=left;verticalAlign=top;spacing=5;rounded=0;" vertex="1" parent="1">
                    <mxGeometry x="-2500" y="-730" width="1620" height="180" as="geometry"/>
                </mxCell>
                <mxCell id="QlwB00z0-otb056kdUWZ-17" value="" style="shape=rect;fillColor=#fff2cc;strokeColor=none;fontSize=24;html=1;whiteSpace=wrap;align=left;verticalAlign=top;spacing=5;rounded=0;" vertex="1" parent="1">
                    <mxGeometry x="-2500" y="-930" width="1610" height="180" as="geometry"/>
                </mxCell>
                <mxCell id="QlwB00z0-otb056kdUWZ-3" value="" style="shape=rect;fillColor=#fff2cc;strokeColor=none;fontSize=24;html=1;whiteSpace=wrap;align=left;verticalAlign=top;spacing=5;rounded=0;" vertex="1" parent="1">
                    <mxGeometry x="-2500" y="-1146.8" width="1610" height="196.8" as="geometry"/>
                </mxCell>
                <mxCell id="QlwB00z0-otb056kdUWZ-4" value="T1 - API сервиса интеграции депозитов АБС" style="shape=rect;fillColor=#ffe6cc;strokeColor=#d79b00;fontSize=18;html=1;whiteSpace=wrap;align=left;verticalAlign=top;spacing=5;rounded=0;" vertex="1" parent="1">
                    <mxGeometry x="-2480" y="-1120" width="390" height="50" as="geometry"/>
                </mxCell>
                <mxCell id="QlwB00z0-otb056kdUWZ-5" value="T2 - Передача файлов на SFTP-сервер" style="shape=rect;fillColor=#ffe6cc;strokeColor=#d79b00;fontSize=18;html=1;whiteSpace=wrap;align=center;verticalAlign=top;spacing=5;rounded=0;" vertex="1" parent="1">
                    <mxGeometry x="-2120" y="-1040" width="550" height="60" as="geometry"/>
                </mxCell>
                <mxCell id="QlwB00z0-otb056kdUWZ-6" value="АБС&lt;div&gt;Сервис интеграции депозитов&lt;/div&gt;" style="rounded=0;whiteSpace=wrap;html=1;fillColor=#f5f5f5;fontColor=#333333;strokeColor=#666666;fontSize=18;" vertex="1" parent="1">
                    <mxGeometry x="-2630" y="-1146.8" width="120" height="196.8" as="geometry"/>
                </mxCell>
                <mxCell id="QlwB00z0-otb056kdUWZ-7" value="SFTP" style="rounded=0;whiteSpace=wrap;html=1;fillColor=#f5f5f5;fontColor=#333333;strokeColor=#666666;fontSize=18;" vertex="1" parent="1">
                    <mxGeometry x="-2630" y="-930" width="120" height="180" as="geometry"/>
                </mxCell>
                <mxCell id="QlwB00z0-otb056kdUWZ-8" value="Q2" style="shape=step;perimeter=stepPerimeter;whiteSpace=wrap;html=1;fixedSize=1;size=10;fillColor=#f5f5f5;strokeColor=#666666;fontSize=18;fontStyle=1;align=center;rounded=0;fontColor=#333333;" vertex="1" parent="1">
                    <mxGeometry x="-2500" y="-1240" width="1610" height="74.4" as="geometry"/>
                </mxCell>
                <mxCell id="QlwB00z0-otb056kdUWZ-11" value="T5 - Вывод ставок пользователю системы колл-центра" style="shape=rect;fillColor=#ffe6cc;strokeColor=#d79b00;fontSize=18;html=1;whiteSpace=wrap;align=center;verticalAlign=top;spacing=5;rounded=0;" vertex="1" parent="1">
                    <mxGeometry x="-1860" y="-640" width="940" height="50" as="geometry"/>
                </mxCell>
                <mxCell id="QlwB00z0-otb056kdUWZ-12" value="T4 - Получение ставок через API интеграции АБС" style="shape=rect;fillColor=#ffe6cc;strokeColor=#d79b00;fontSize=18;html=1;whiteSpace=wrap;align=center;verticalAlign=top;spacing=5;rounded=0;" vertex="1" parent="1">
                    <mxGeometry x="-2060" y="-720" width="480" height="60" as="geometry"/>
                </mxCell>
                <mxCell id="QlwB00z0-otb056kdUWZ-13" value="T6 - Получение файлов с SFTP для операторов партнера" style="shape=rect;fillColor=#ffe6cc;strokeColor=#d79b00;fontSize=18;html=1;whiteSpace=wrap;align=center;verticalAlign=top;spacing=5;rounded=0;" vertex="1" parent="1">
                    <mxGeometry x="-1560" y="-470" width="640" height="50" as="geometry"/>
                </mxCell>
                <mxCell id="QlwB00z0-otb056kdUWZ-14" value="Система колл-центра" style="rounded=0;whiteSpace=wrap;html=1;fillColor=#f5f5f5;fontColor=#333333;strokeColor=#666666;fontSize=18;" vertex="1" parent="1">
                    <mxGeometry x="-2630" y="-730" width="120" height="180" as="geometry"/>
                </mxCell>
                <mxCell id="QlwB00z0-otb056kdUWZ-15" value="Система&amp;nbsp; партнерского колл-центра" style="rounded=0;whiteSpace=wrap;html=1;fillColor=#f5f5f5;fontColor=#333333;strokeColor=#666666;fontSize=18;" vertex="1" parent="1">
                    <mxGeometry x="-2630" y="-530" width="120" height="190" as="geometry"/>
                </mxCell>
                <mxCell id="QlwB00z0-otb056kdUWZ-16" value="T3 - Развернуть SFTP сервер" style="shape=rect;fillColor=#ffe6cc;strokeColor=#d79b00;fontSize=18;html=1;whiteSpace=wrap;align=center;verticalAlign=top;spacing=5;rounded=0;" vertex="1" parent="1">
                    <mxGeometry x="-2400" y="-910" width="280" height="60" as="geometry"/>
                </mxCell>
            </root>
        </mxGraphModel>
    </diagram>
</mxfile>